<svg width="20" height="20" viewBox="0 0 20 20" fill="none" xmlns="http://www.w3.org/2000/svg">
<g clip-path="url(#clip0_534_2123)">
<path fill-rule="evenodd" clip-rule="evenodd" d="M8.43645 0.121455C9.47259 -0.0414616 10.5278 -0.0414616 11.564 0.121455C11.6856 0.140579 11.8023 0.183473 11.9073 0.24769C12.0124 0.311906 12.1038 0.396187 12.1763 0.49572C12.2487 0.595253 12.3009 0.708088 12.3298 0.827784C12.3587 0.947481 12.3637 1.07169 12.3446 1.19333C12.3255 1.31497 12.2826 1.43165 12.2183 1.53671C12.1541 1.64176 12.0698 1.73315 11.9703 1.80563C11.8708 1.87812 11.7579 1.9303 11.6382 1.95918C11.5186 1.98806 11.3943 1.99308 11.2727 1.97395C10.4295 1.84138 9.57086 1.84138 8.7277 1.97395C8.48205 2.01258 8.23111 1.95203 8.03009 1.80563C7.82908 1.65924 7.69445 1.43899 7.65583 1.19333C7.61721 0.947673 7.67775 0.696735 7.82415 0.49572C7.97054 0.294704 8.1908 0.160077 8.43645 0.121455V0.121455ZM5.43145 2.11645C5.57748 2.31742 5.63779 2.56812 5.59911 2.8135C5.56044 3.05889 5.42596 3.2789 5.2252 3.4252C4.53492 3.92757 3.92757 4.53492 3.4252 5.2252C3.27632 5.41932 3.05745 5.54755 2.81533 5.58252C2.5732 5.6175 2.327 5.55644 2.12927 5.41238C1.93154 5.26833 1.79795 5.05269 1.75703 4.8115C1.7161 4.57031 1.77107 4.32267 1.9102 4.12145C2.52732 3.27309 3.27344 2.52655 4.12145 1.90895C4.22108 1.83652 4.334 1.78442 4.45377 1.75565C4.57353 1.72687 4.69779 1.72198 4.81945 1.74125C4.94111 1.76052 5.05778 1.80357 5.16279 1.86795C5.2678 1.93233 5.35909 2.01678 5.43145 2.11645V2.11645ZM14.569 2.11645C14.6414 2.01687 14.7328 1.93254 14.8378 1.86828C14.9429 1.80402 15.0596 1.76108 15.1812 1.74193C15.3029 1.72278 15.4271 1.72778 15.5468 1.75665C15.6665 1.78553 15.7794 1.8377 15.879 1.9102C16.7273 2.52729 17.4739 3.27341 18.0915 4.12145C18.2378 4.32269 18.2983 4.57382 18.2595 4.81961C18.2207 5.0654 18.0858 5.28571 17.8846 5.43208C17.6833 5.57845 17.4322 5.63888 17.1864 5.60008C16.9406 5.56128 16.7203 5.42644 16.574 5.2252C16.072 4.53502 15.465 3.92767 14.7752 3.4252C14.5744 3.2789 14.44 3.05889 14.4013 2.8135C14.3626 2.56812 14.4229 2.31742 14.569 2.11645V2.11645ZM1.19395 7.65645C1.43939 7.6952 1.6594 7.82979 1.80565 8.03066C1.95191 8.23152 2.01244 8.48223 1.97395 8.7277C1.84138 9.57086 1.84138 10.4295 1.97395 11.2727C2.01258 11.5184 1.95203 11.7693 1.80563 11.9703C1.65924 12.1713 1.43899 12.306 1.19333 12.3446C0.947673 12.3832 0.696735 12.3227 0.49572 12.1763C0.294704 12.0299 0.160077 11.8096 0.121455 11.564C-0.0414616 10.5278 -0.0414616 9.47259 0.121455 8.43645C0.140633 8.3148 0.183591 8.19813 0.247875 8.09308C0.312159 7.98804 0.396509 7.89669 0.496107 7.82426C0.595704 7.75182 0.708598 7.69972 0.828337 7.67093C0.948076 7.64214 1.07231 7.63722 1.19395 7.65645V7.65645ZM18.8065 7.65645C18.9281 7.63722 19.0523 7.64214 19.1721 7.67093C19.2918 7.69972 19.4047 7.75182 19.5043 7.82426C19.6039 7.89669 19.6882 7.98804 19.7525 8.09308C19.8168 8.19813 19.8598 8.3148 19.879 8.43645C20.0418 9.47259 20.0418 10.5278 19.879 11.564C19.8403 11.8096 19.7057 12.0299 19.5047 12.1763C19.3037 12.3227 19.0527 12.3832 18.8071 12.3446C18.5614 12.306 18.3412 12.1713 18.1948 11.9703C18.0484 11.7693 17.9878 11.5184 18.0265 11.2727C18.1591 10.4296 18.1591 9.57085 18.0265 8.7277C17.988 8.48223 18.0485 8.23152 18.1948 8.03066C18.341 7.82979 18.561 7.6952 18.8065 7.65645V7.65645ZM2.11645 14.569C2.216 14.4965 2.32886 14.4443 2.44858 14.4154C2.5683 14.3865 2.69253 14.3815 2.81418 14.4007C2.93584 14.4198 3.05252 14.4628 3.15758 14.527C3.26264 14.5913 3.354 14.6756 3.42645 14.7752C3.92844 15.4654 4.53537 16.0727 5.2252 16.5752C5.41932 16.7241 5.54755 16.943 5.58252 17.1851C5.6175 17.4272 5.55644 17.6734 5.41238 17.8711C5.26833 18.0689 5.05269 18.2025 4.8115 18.2434C4.57031 18.2843 4.32267 18.2293 4.12145 18.0902C3.27306 17.4731 2.52652 16.727 1.90895 15.879C1.83652 15.7793 1.78442 15.6664 1.75565 15.5466C1.72687 15.4269 1.72198 15.3026 1.74125 15.181C1.76052 15.0593 1.80357 14.9426 1.86795 14.8376C1.93233 14.7326 2.01678 14.6413 2.11645 14.569V14.569ZM17.884 14.569C17.9835 14.6414 18.0679 14.7328 18.1321 14.8378C18.1964 14.9429 18.2393 15.0596 18.2585 15.1812C18.2776 15.3029 18.2726 15.4271 18.2438 15.5468C18.2149 15.6665 18.1627 15.7794 18.0902 15.879C17.4731 16.7274 16.727 17.4739 15.879 18.0915C15.7793 18.1639 15.6664 18.2161 15.5466 18.2449C15.4268 18.2737 15.3025 18.2787 15.1808 18.2595C15.0591 18.2402 14.9424 18.1973 14.8373 18.1329C14.7322 18.0686 14.6408 17.9842 14.5683 17.8846C14.4959 17.7849 14.4437 17.672 14.4149 17.5522C14.3861 17.4324 14.3811 17.3081 14.4003 17.1864C14.4195 17.0647 14.4625 16.948 14.5269 16.8429C14.5912 16.7378 14.6756 16.6464 14.7752 16.574C15.4654 16.072 16.0727 15.465 16.5752 14.7752C16.7215 14.5744 16.9415 14.44 17.1869 14.4013C17.4323 14.3626 17.683 14.4229 17.884 14.569V14.569ZM7.65645 18.8065C7.6952 18.561 7.82979 18.341 8.03066 18.1948C8.23152 18.0485 8.48223 17.988 8.7277 18.0265C9.57085 18.1591 10.4296 18.1591 11.2727 18.0265C11.3943 18.0073 11.5186 18.0124 11.6382 18.0412C11.7579 18.0701 11.8708 18.1223 11.9703 18.1948C12.0698 18.2673 12.1541 18.3586 12.2183 18.4637C12.2826 18.5688 12.3255 18.6854 12.3446 18.8071C12.3637 18.9287 12.3587 19.0529 12.3298 19.1726C12.3009 19.2923 12.2487 19.4052 12.1763 19.5047C12.1038 19.6042 12.0124 19.6885 11.9073 19.7527C11.8023 19.8169 11.6856 19.8598 11.564 19.879C10.5278 20.0418 9.47259 20.0418 8.43645 19.879C8.3148 19.8598 8.19813 19.8168 8.09308 19.7525C7.98804 19.6882 7.89669 19.6039 7.82426 19.5043C7.75182 19.4047 7.69972 19.2918 7.67093 19.1721C7.64214 19.0523 7.63722 18.9281 7.65645 18.8065V18.8065Z" fill="#6E7781"/>
</g>
<defs>
<clipPath id="clip0_534_2123">
<rect width="20" height="20" fill="white"/>
</clipPath>
</defs>
</svg>
