<svg width="16" height="16" viewBox="0 0 16 16" fill="none" xmlns="http://www.w3.org/2000/svg">
<g clip-path="url(#clip0_444_2680)">
<path fill-rule="evenodd" clip-rule="evenodd" d="M4.75008 2.37004C4.01074 2.79684 3.3627 3.36508 2.84296 4.04232C2.32323 4.71956 1.94198 5.49254 1.72097 6.31713C1.27464 7.98245 1.50813 9.75687 2.37008 11.25C3.23203 12.7432 4.65184 13.8328 6.31717 14.2791C7.98249 14.7254 9.75691 14.492 11.2501 13.63C11.4217 13.5386 11.6221 13.5174 11.809 13.5709C11.9959 13.6244 12.1547 13.7484 12.252 13.9168C12.3493 14.0851 12.3774 14.2846 12.3304 14.4733C12.2834 14.6619 12.165 14.825 12.0001 14.928C10.4876 15.8008 8.73103 16.1548 6.99853 15.9359C5.26602 15.7169 3.65274 14.9371 2.40491 13.7155C1.15709 12.4939 0.343254 10.8975 0.0876424 9.17003C-0.16797 7.44256 0.148675 5.6789 0.989246 4.14823C1.82982 2.61757 3.14815 1.40398 4.74301 0.692706C6.33787 -0.0185698 8.12166 -0.188465 9.82211 0.208952C11.5226 0.606369 13.0463 1.54927 14.1607 2.89373C15.2751 4.2382 15.919 5.91038 15.9941 7.65504C15.9981 7.68655 16.0001 7.71828 16.0001 7.75004V7.85404C16.0008 7.91737 16.0008 7.98071 16.0001 8.04404V9.25004C16.0005 9.84571 15.8074 10.4253 15.4499 10.9018C15.0925 11.3783 14.59 11.7259 14.018 11.8922C13.446 12.0586 12.8355 12.0347 12.2783 11.8242C11.7211 11.6137 11.2472 11.228 10.9281 10.725C10.2934 11.4069 9.44058 11.8459 8.5168 11.9663C7.59301 12.0866 6.6562 11.8807 5.86798 11.3842C5.07977 10.8876 4.48959 10.1315 4.19927 9.24636C3.90896 8.36117 3.93672 7.4024 4.27776 6.53548C4.6188 5.66856 5.25173 4.94787 6.06735 4.49774C6.88298 4.04762 7.83013 3.89629 8.74541 4.06988C9.66068 4.24346 10.4867 4.73107 11.0809 5.44856C11.675 6.16606 12.0002 7.06845 12.0001 8.00004V9.25004C12.0001 9.58156 12.1318 9.8995 12.3662 10.1339C12.6006 10.3683 12.9186 10.5 13.2501 10.5C13.5816 10.5 13.8996 10.3683 14.134 10.1339C14.3684 9.8995 14.5001 9.58156 14.5001 9.25004V7.86704C14.4771 6.73738 14.16 5.63322 13.5801 4.66348C13.0002 3.69374 12.1776 2.89191 11.1933 2.33707C10.209 1.78224 9.09704 1.49356 7.96716 1.49952C6.83728 1.50547 5.72847 1.80586 4.75008 2.37104V2.37004ZM10.5001 8.00004C10.5001 7.337 10.2367 6.70112 9.76785 6.23227C9.29901 5.76343 8.66312 5.50004 8.00008 5.50004C7.33704 5.50004 6.70115 5.76343 6.23231 6.23227C5.76347 6.70112 5.50008 7.337 5.50008 8.00004C5.50008 8.66308 5.76347 9.29897 6.23231 9.76781C6.70115 10.2366 7.33704 10.5 8.00008 10.5C8.66312 10.5 9.29901 10.2366 9.76785 9.76781C10.2367 9.29897 10.5001 8.66308 10.5001 8.00004Z" fill="#24292E"/>
</g>
<defs>
<clipPath id="clip0_444_2680">
<rect width="16" height="16" fill="white"/>
</clipPath>
</defs>
</svg>
