<svg width="24" height="24" viewBox="0 0 24 24" fill="none" xmlns="http://www.w3.org/2000/svg">
<g clip-path="url(#clip0_539_230)">
<path fill-rule="evenodd" clip-rule="evenodd" d="M22.0394 7.30684C20.4997 9.42501 18.2563 11.7672 16.3738 13.6742C14.7611 15.3077 13.241 16.447 11.9009 17.1461C12.1651 18.8577 11.638 20.6678 10.3195 21.9863C9.67299 22.6328 8.72186 23.0225 7.8349 23.2778C6.91343 23.543 5.89287 23.7086 4.96336 23.814C4.0285 23.9201 3.15535 23.9685 2.51784 23.9906C2.19823 24.0016 1.93579 24.0062 1.75192 24.0079C1.65994 24.0088 1.5875 24.0089 1.53725 24.0089L1.47882 24.0087L1.46269 24.0086L1.458 24.0086L1.45598 24.0086C0.84367 24.0023 0.348443 23.507 0.342183 22.8947L0.342163 22.8927L0.342123 22.888L0.342014 22.8719L0.341834 22.8135C0.341788 22.7632 0.341968 22.6908 0.342844 22.5988C0.344593 22.4149 0.349122 22.1525 0.3602 21.8329C0.382297 21.1954 0.43072 20.3223 0.53677 19.3874C0.642213 18.4579 0.80787 17.4374 1.07307 16.5159C1.32833 15.629 1.71805 14.6779 2.3646 14.0313C3.67927 12.7167 5.48279 12.1888 7.19004 12.4477C7.88096 11.0854 9.01297 9.53471 10.6393 7.88728C12.533 5.96908 14.878 3.74098 17.0133 2.22496C18.072 1.47331 19.1559 0.840526 20.1573 0.537604C21.146 0.238538 22.3608 0.184277 23.2637 1.08953C24.1735 1.9993 24.0867 3.21962 23.7724 4.19249C23.4524 5.18275 22.803 6.25639 22.0394 7.30684ZM9.31811 13.2341C9.6739 13.4563 10.0103 13.722 10.3196 14.0313C10.6244 14.3362 10.887 14.6674 11.1073 15.0176C11.8151 14.6209 12.6269 14.0518 13.5181 13.2757L11.0307 10.7883C10.2668 11.6928 9.70708 12.5165 9.31811 13.2341ZM20.2194 5.9839C18.8846 7.82023 16.9353 9.89125 15.1423 11.7179L12.5651 9.14076C14.3728 7.32666 16.4619 5.37583 18.3158 4.0596C19.3078 3.35535 20.1561 2.88864 20.8088 2.69123C21.4741 2.48996 21.6353 2.64303 21.6706 2.67846L21.6727 2.68055C21.6937 2.70109 21.8425 2.84704 21.6313 3.50078C21.4217 4.14951 20.9393 4.99357 20.2194 5.9839ZM4.7098 21.5784C3.93144 21.6667 3.19252 21.7121 2.61542 21.7353C2.63864 21.1583 2.68414 20.4194 2.77243 19.641C2.87056 18.776 3.01831 17.8922 3.2353 17.1382C3.46222 16.3498 3.72346 15.8544 3.95559 15.6223C5.27361 14.3043 7.41054 14.3043 8.72856 15.6223C10.0466 16.9403 10.0466 19.0773 8.72856 20.3953C8.49644 20.6274 8.00111 20.8886 7.21265 21.1156C6.45869 21.3325 5.57485 21.4803 4.7098 21.5784Z" fill="#24292E"/>
</g>
<defs>
<clipPath id="clip0_539_230">
<rect width="24" height="24" fill="white"/>
</clipPath>
</defs>
</svg>
