<svg width="16" height="16" viewBox="0 0 16 16" fill="none" xmlns="http://www.w3.org/2000/svg">
<path fill-rule="evenodd" clip-rule="evenodd" d="M4.45559 0.733634C5.31654 -0.127316 6.77172 0.132216 7.28196 1.23772L7.89462 2.56516C8.04695 2.89521 8.25648 3.1957 8.51352 3.45274C8.91674 3.85596 9.42394 4.13938 9.97867 4.27146L12.4328 4.85578C13.7647 5.17288 14.233 6.82756 13.2649 7.79563L11.0607 9.99988L14.7803 13.7196C15.0732 14.0125 15.0732 14.4873 14.7803 14.7802C14.4874 15.0731 14.0126 15.0731 13.7197 14.7802L10 11.0606L7.79576 13.2648C6.82768 14.2329 5.17302 13.7646 4.85591 12.4327L4.27158 9.97854C4.1395 9.42382 3.85608 8.91662 3.45286 8.5134C3.19582 8.25636 2.89533 8.04683 2.56527 7.8945L1.23784 7.28184C0.132338 6.7716 -0.127194 5.31642 0.733756 4.45547L4.45559 0.733634ZM5.92002 1.86631C5.84713 1.70838 5.63924 1.6713 5.51625 1.7943L1.79442 5.51613C1.67142 5.63912 1.7085 5.84701 1.86643 5.9199L3.19386 6.53256C3.68458 6.75905 4.13136 7.07058 4.51353 7.45274C5.11303 8.05225 5.53441 8.80634 5.73079 9.63111L6.31512 12.0853C6.36042 12.2756 6.5968 12.3425 6.7351 12.2042L12.2043 6.73497C12.3426 6.59667 12.2757 6.36029 12.0854 6.31499L9.63124 5.73067C8.80647 5.53429 8.05236 5.1129 7.45286 4.5134C7.07069 4.13123 6.75917 3.68446 6.53268 3.19375L5.92002 1.86631Z" fill="#1A7F37"/>
</svg>
