<svg width="20" height="20" viewBox="0 0 20 20" fill="none" xmlns="http://www.w3.org/2000/svg">
<path d="M7.53791 6.21209C7.1718 5.84597 6.57821 5.84597 6.21209 6.21209C5.84597 6.57821 5.84597 7.1718 6.21209 7.53791L8.67417 10L6.21209 12.4621C5.84597 12.8282 5.84597 13.4218 6.21209 13.7879C6.5782 14.154 7.17179 14.154 7.53791 13.7879L10 11.3258L12.4621 13.7879C12.8282 14.154 13.4218 14.154 13.7879 13.7879C14.154 13.4218 14.154 12.8282 13.7879 12.4621L11.3258 10L13.7879 7.53792C14.154 7.17181 14.154 6.57821 13.7879 6.2121C13.4218 5.84598 12.8282 5.84598 12.4621 6.2121L10 8.67418L7.53791 6.21209Z" fill="#CF222E"/>
<path fill-rule="evenodd" clip-rule="evenodd" d="M2.92893 2.92893C-0.976311 6.83417 -0.976311 13.1658 2.92893 17.0711C6.83417 20.9763 13.1658 20.9763 17.0711 17.0711C20.9763 13.1658 20.9763 6.83417 17.0711 2.92893C13.1658 -0.976311 6.83417 -0.976311 2.92893 2.92893ZM4.25476 15.7452C1.08175 12.5722 1.08175 7.42777 4.25476 4.25476C7.42777 1.08175 12.5722 1.08175 15.7452 4.25476C18.9183 7.42777 18.9183 12.5722 15.7452 15.7452C12.5722 18.9183 7.42777 18.9183 4.25476 15.7452Z" fill="#CF222E"/>
</svg>
